<?xml version="1.0" encoding="UTF-8"?>
<svg width="123px" height="27px" viewBox="0 0 123 27" version="1.1" xmlns="http://www.w3.org/2000/svg" xmlns:xlink="http://www.w3.org/1999/xlink">
    <!-- Generator: Sketch 40.3 (33839) - http://www.bohemiancoding.com/sketch -->
    <title>navi</title>
    <desc>Created with Sketch.</desc>
    <defs>
        <rect id="path-1" x="8.97435897" y="0.0856481481" width="6.41025641" height="1.27314815"></rect>
        <mask id="mask-2" maskContentUnits="userSpaceOnUse" maskUnits="objectBoundingBox" x="0" y="0" width="6.41025641" height="1.27314815" fill="white">
            <use xlink:href="#path-1"></use>
        </mask>
        <path d="M13.7939461,6.62415586 C15.3134916,6.62415586 16.6945039,7.775737 16.8808912,9.19812342 L18.3439742,19.7978247 C18.5501325,21.2193877 17.1107115,22.3717923 15.1265478,22.3717923 L3.448162,22.3717923 C1.46411538,22.3717923 0.0294970043,21.2202111 0.242000312,19.7978247 L1.75147176,9.19812342 C1.94397315,7.77656039 3.33004641,6.62415586 4.84968156,6.62415586 L13.7939461,6.62415586 Z" id="path-3"></path>
        <mask id="mask-4" maskContentUnits="userSpaceOnUse" maskUnits="objectBoundingBox" x="0" y="0" width="18.1424906" height="15.7476364" fill="white">
            <use xlink:href="#path-3"></use>
        </mask>
        <rect id="path-5" x="107.192823" y="16" width="14" height="11"></rect>
        <mask id="mask-6" maskContentUnits="userSpaceOnUse" maskUnits="objectBoundingBox" x="0" y="0" width="14" height="11" fill="white">
            <use xlink:href="#path-5"></use>
        </mask>
    </defs>
    <g id="NAVIGATION" stroke="none" stroke-width="1" fill="none" fill-rule="evenodd">
        <g id="Desktop" transform="translate(-1314.000000, -190.000000)">
            <g id="navi" transform="translate(1315.000000, 189.000000)">
                <g id="Group-2" transform="translate(48.000000, 2.000000)">
                    <path d="M11.364995,4.78175458 C12.0267053,3.84362608 12.7829456,3.12983267 13.630956,2.64037432 C14.4796564,2.15091598 15.3186967,1.89259074 16.1466971,1.86539861 C16.9740075,1.83820648 17.7916578,1.97756615 18.5989582,2.28347762 C19.4062585,2.58938908 20.1141988,3.02446316 20.7207091,3.58869986 C21.3279094,4.15293657 21.8178096,4.83613884 22.1904098,5.63830668 C22.5636999,6.44047452 22.75,7.27663252 22.75,8.14678069 C22.75,8.9217564 22.5181599,9.72052522 22.0558597,10.5430872 C21.5935595,11.3656491 20.9456492,12.2120041 20.1100588,13.0821523 C19.2751585,13.9523005 18.4023081,14.8190496 17.4915077,15.6823998 C16.5807073,16.5457499 15.5457068,17.5824499 14.3865063,18.7924997 C13.2273058,20.0032292 12.2199054,21.1854071 11.364995,22.3410726 C10.5087046,21.1854071 9.50544418,20.0032292 8.35314367,18.7924997 C7.20084317,17.5824499 6.16860271,16.5457499 5.25780231,15.6823998 C4.34700191,14.8190496 3.47415153,13.9523005 2.63994116,13.0821523 C1.80504079,12.2120041 1.15575051,11.3656491 0.693450305,10.5430872 C0.230460101,9.72052522 0,8.9217564 0,8.14678069 C0,7.27663252 0.193200085,6.44047452 0.579600255,5.63830668 C0.966690425,4.83613884 1.46970065,4.15293657 2.09070092,3.58869986 C2.71170119,3.02446316 3.43275151,2.58938908 4.25385187,2.28347762 C5.07495223,1.97756615 5.89605259,1.83820648 6.71715295,1.86539861 C7.53825331,1.89259074 8.36625368,2.154315 9.20115404,2.65057137 C10.0360544,3.14750755 10.7571047,3.85722215 11.364995,4.78175458" id="Fill-11" stroke="#979797"></path>
                    <polygon id="Triangle" fill="#FFFFFF" transform="translate(14.969225, 13.161798) rotate(-51.000000) translate(-14.969225, -13.161798) " points="14.9692253 4.5411087 23.7192253 21.782488 6.21922533 21.782488"></polygon>
                </g>
                <g id="notification">
                    <g id="Group-2" stroke-width="1" transform="translate(0.000000, 6.000000)">
                        <path d="M12.1794872,12.2378472 L0.641025641,0.722222222 L23.7179487,0.722222222 L12.1794872,12.2378472 L12.1794872,12.2378472 L12.1794872,12.2378472 L12.1794872,12.2378472 Z M12.1794872,12.1805556 L8.33333333,8.36111111 L0.641025641,16 L23.7179487,16 L16.025641,8.36111111 L12.1794872,12.1805556 L12.1794872,12.1805556 L12.1794872,12.1805556 L12.1794872,12.1805556 Z" id="Fill-6" stroke="#979797" fill="#FFFFFF"></path>
                        <use id="Rectangle-2" stroke="#FFFFFF" mask="url(#mask-2)" stroke-width="2" fill="#D8D8D8" xlink:href="#path-1"></use>
                        <polygon id="Triangle" stroke="#979797" transform="translate(4.189407, 8.291719) rotate(89.000000) translate(-4.189407, -8.291719) " points="4.24148745 4.28457721 11.4669529 12.2988611 -3.08813939 12.0465653"></polygon>
                        <polygon id="Triangle" stroke="#979797" transform="translate(20.137907, 8.443434) rotate(269.000000) translate(-20.137907, -8.443434) " points="20.2100637 4.33826395 27.4163699 12.5486031 12.8594434 12.2962755"></polygon>
                    </g>
                    <g id="Group-3" stroke-width="1" transform="translate(97.192823, 2.000000)" stroke="#979797">
                        <use id="Rectangle-4" mask="url(#mask-4)" stroke-width="2" xlink:href="#path-3"></use>
                        <path d="M4.07736653,7.65548064 L4.07736653,2.268412 C4.07736653,2.268412 4.48097775,1.2952849 5.78730329,0.624958771 C6.5013789,0.258538979 6.97680614,8.24670499e-16 8.98199074,4.4408921e-16 C11.0939946,4.4408921e-16 12.0357114,0.230296808 12.8469637,0.624958771 C14.2149711,1.29047371 14.5347601,2.268412 14.5347601,2.268412 L14.5347601,7.70133697" id="Line" stroke-linecap="square"></path>
                    </g>
                    <use id="Rectangle-3" stroke="#FFFFFF" mask="url(#mask-6)" stroke-width="2" fill="#FFFFFF" xlink:href="#path-5"></use>
                </g>
            </g>
        </g>
    </g>
</svg>