<?xml version="1.0" encoding="UTF-8"?>
<svg width="34px" height="35px" viewBox="0 0 34 35" version="1.1" xmlns="http://www.w3.org/2000/svg" xmlns:xlink="http://www.w3.org/1999/xlink">
    <!-- Generator: Sketch 40.3 (33839) - http://www.bohemiancoding.com/sketch -->
    <title>fi-social-pinterest</title>
    <desc>Created with Sketch.</desc>
    <defs></defs>
    <g id="NAVIGATION" stroke="none" stroke-width="1" fill="none" fill-rule="evenodd">
        <g id="Desktop" transform="translate(-1290.000000, -953.000000)">
            <rect id="Rectangle-6" fill="#F4F4F4" x="-1" y="921" width="1440" height="368"></rect>
            <g id="FOOTER" transform="translate(72.000000, 953.000000)" stroke-width="2" stroke="#000000">
                <g id="fi-social-pinterest" transform="translate(1219.000000, 1.000000)">
                    <g id="Layer_1">
                        <path d="M16.0004103,0.4120875 C7.16471795,0.4120875 0,7.6151625 0,16.5 C0,23.087625 3.93969231,28.7463 9.5774359,31.2345 C9.53230769,30.1112625 9.56882051,28.761975 9.856,27.5413875 C10.1636923,26.2345875 11.9146667,18.7749375 11.9146667,18.7749375 C11.9146667,18.7749375 11.4034872,17.7478125 11.4034872,16.2298125 C11.4034872,13.845975 12.7778462,12.0643875 14.4886154,12.0643875 C15.9437949,12.0643875 16.6469744,13.1632875 16.6469744,14.479575 C16.6469744,15.95055 15.7144615,18.149175 15.2344615,20.188575 C14.8332308,21.8959125 16.0857436,23.287275 17.76,23.287275 C20.7913846,23.287275 22.8328205,19.37265 22.8328205,14.733675 C22.8328205,11.2088625 20.4713846,8.5696875 16.1755897,8.5696875 C11.3218462,8.5696875 8.29825641,12.2087625 8.29825641,16.2735375 C8.29825641,17.6760375 8.70933333,18.663975 9.3534359,19.4283375 C9.64923077,19.7802 9.69025641,19.9216875 9.58317949,20.3259375 C9.50646154,20.6217 9.33005128,21.3340875 9.2574359,21.61665 C9.15117949,22.0242 8.82297436,22.1694 8.45620513,22.01925 C6.22071795,21.1014375 5.17948718,18.64005 5.17948718,15.873 C5.17948718,11.3025 9.01251282,5.8232625 16.6145641,5.8232625 C22.7236923,5.8232625 26.7442051,10.26795 26.7442051,15.0401625 C26.7442051,21.350175 23.2545641,26.06505 18.1107692,26.06505 C16.384,26.06505 14.7589744,25.1257875 14.2022564,24.0598875 C14.2022564,24.0598875 13.2734359,27.7657875 13.0769231,28.4827125 C12.737641,29.7231 12.0734359,30.963075 11.4662564,31.9287375 C12.9054359,32.355675 14.4254359,32.5887375 16.0008205,32.5887375 C24.8361026,32.5879125 32,25.384425 32,16.5 C32,7.6151625 24.8361026,0.4120875 16.0004103,0.4120875 L16.0004103,0.4120875 Z" id="Shape"></path>
                    </g>
                </g>
            </g>
        </g>
    </g>
</svg>